<svg xmlns="http://www.w3.org/2000/svg" viewBox="0 0 197.16 190.25"><defs><style>.cls-1{fill:#fff;stroke:#000;stroke-miterlimit:10;stroke-width:4px;}</style></defs><title>Asset 2.svg</title><g id="Layer_2" data-name="Layer 2"><g id="Layer_1-2" data-name="Layer 1"><polygon class="cls-1" points="2.34 73.53 98.8 2.49 194.82 73.53 158.34 188.25 38.82 188.25 2.34 73.53"/><rect x="98.58" y="81.93" width="13.32" height="60.48"/><path d="M134.94,81.93v28.8H121.26s13.32,5.24,13.68,12.52,0,20.6,0,20.6h14V81.93Z"/><path d="M74.82,80.73H88.5s-7,3.84-6.84,10.56,0,26.64,0,26.64h-1.8l.24-26.88-.24-2.16S77.7,81.21,74.82,80.73Z"/><path d="M41.46,80.73s-.24,45.84,1.2,51.12,4.56,12.24,16.32,12S75.54,140,78.9,134v-.24c1-1.59-22.17,9.59-22.32-1s-.24-52.08-.24-52.08Z"/></g></g></svg>